<svg xmlns="http://www.w3.org/2000/svg">
<defs>
<clipPath id="clip0_130_1552">
<rect width="156" height="57" fill="white"/>
</clipPath>


<clipPath id="clip0_198_831">
<rect width="202" height="73.8077" fill="white"/>
</clipPath>
</defs>
<symbol id="account" viewBox="0 0 12 12">
<path d="M7.5 1.5H9.5C9.76522 1.5 10.0196 1.60536 10.2071 1.79289C10.3946 1.98043 10.5 2.23478 10.5 2.5V9.5C10.5 9.76522 10.3946 10.0196 10.2071 10.2071C10.0196 10.3946 9.76522 10.5 9.5 10.5H7.5" stroke="#F8F5EE" stroke-linecap="round" stroke-linejoin="round"/>
<path d="M5 8.5L7.5 6L5 3.5" stroke="#F8F5EE" stroke-linecap="round" stroke-linejoin="round"/>
<path d="M7.5 6H1.5" stroke="#F8F5EE" stroke-linecap="round" stroke-linejoin="round"/>
</symbol>
<symbol id="bag" viewBox="0 0 12 12">
<path d="M3 1L1.5 3V10C1.5 10.2652 1.60536 10.5196 1.79289 10.7071C1.98043 10.8946 2.23478 11 2.5 11H9.5C9.76522 11 10.0196 10.8946 10.2071 10.7071C10.3946 10.5196 10.5 10.2652 10.5 10V3L9 1H3Z" stroke="#F8F5EE" stroke-linecap="round" stroke-linejoin="round"/>
<path d="M1.5 3H10.5" stroke="#F8F5EE" stroke-linecap="round" stroke-linejoin="round"/>
<path d="M8 5C8 5.53043 7.78929 6.03914 7.41421 6.41421C7.03914 6.78929 6.53043 7 6 7C5.46957 7 4.96086 6.78929 4.58579 6.41421C4.21071 6.03914 4 5.53043 4 5" stroke="#F8F5EE" stroke-linecap="round" stroke-linejoin="round"/>
</symbol>
<symbol id="lang" viewBox="0 0 42 12">
<path d="M0 10.6997V9.59872H1.9843V3.58463H0V2.48369H2.74862L2.98379 3.55177H3.05728C3.39045 3.21217 3.76281 2.92188 4.17437 2.68088C4.58593 2.43987 5.07588 2.31937 5.64422 2.31937C5.97738 2.31937 6.24196 2.39058 6.43794 2.53299C6.64371 2.6754 6.8005 2.88354 6.90829 3.1574C7.02588 3.43127 7.10427 3.76538 7.14346 4.15975C7.18266 4.54316 7.20226 4.98135 7.20226 5.4743L6.17336 5.49074C6.17336 4.78964 6.10967 4.27477 5.98228 3.94613C5.8647 3.6175 5.64422 3.45318 5.32085 3.45318C5.01708 3.45318 4.74271 3.50247 4.49774 3.60106C4.25276 3.69966 4.03718 3.82016 3.851 3.96257C3.67462 4.10498 3.52274 4.24739 3.39535 4.3898C3.26796 4.53221 3.17487 4.65271 3.11608 4.7513V9.59872H5.93819V10.6997H0Z" fill="white"/>
<path d="M13.1788 2.48369H15.266V8.08698C15.266 8.62375 15.2954 9.13862 15.3542 9.63158H16.339V10.6997H14.3841L14.34 9.30294H14.2812C14.0264 9.77399 13.6883 10.1574 13.267 10.4532C12.8456 10.749 12.3361 10.8968 11.7383 10.8968C11.2876 10.8968 10.9005 10.8366 10.5772 10.7161C10.2636 10.6065 10.0039 10.4094 9.79815 10.1245C9.59237 9.83972 9.44048 9.46178 9.34249 8.99074C9.2445 8.50873 9.19551 7.91171 9.19551 7.19966V3.58463H8.21071V2.48369H10.342V6.93674C10.342 7.38588 10.3567 7.7912 10.3861 8.15271C10.4253 8.50325 10.4988 8.80451 10.6066 9.05646C10.7144 9.29746 10.8711 9.48369 11.0769 9.61515C11.2925 9.73565 11.5767 9.7959 11.9294 9.7959C12.439 9.7959 12.8799 9.60967 13.2523 9.23721C13.6345 8.86476 13.9235 8.39919 14.1195 7.8405V3.58463H13.1788V2.48369Z" fill="white"/>
<path d="M24.5692 -1L25.4952 -0.539906L20.1302 13L19.2042 12.5399L24.5692 -1Z" fill="white"/>
<path d="M33.2454 9.66444C33.0691 9.83972 32.8584 10.004 32.6134 10.1574C32.3782 10.3108 32.1186 10.4422 31.8344 10.5518C31.5502 10.6613 31.2513 10.7435 30.9378 10.7982C30.634 10.864 30.3253 10.8968 30.0118 10.8968C29.4238 10.8968 28.9045 10.7982 28.4537 10.6011C28.003 10.3929 27.6257 10.1026 27.322 9.73017C27.0182 9.34676 26.7879 8.89214 26.6311 8.36632C26.4743 7.8405 26.396 7.24895 26.396 6.59167C26.396 5.90153 26.4792 5.28807 26.6458 4.7513C26.8222 4.21452 27.0721 3.76538 27.3954 3.40388C27.7188 3.04238 28.1108 2.76851 28.5713 2.58228C29.0319 2.3851 29.5463 2.28651 30.1147 2.28651C30.5262 2.28651 30.9329 2.34676 31.3346 2.46726C31.7364 2.58776 32.0892 2.81781 32.3929 3.1574C32.7065 3.48604 32.9466 3.94613 33.1132 4.53768C33.2797 5.11828 33.3385 5.87415 33.2895 6.80529H27.6012C27.6012 7.7912 27.8364 8.53064 28.3068 9.0236C28.7869 9.5056 29.4238 9.7466 30.2176 9.7466C30.4821 9.7466 30.7418 9.71374 30.9966 9.64801C31.2611 9.57133 31.511 9.48369 31.7462 9.3851C31.9814 9.28651 32.1872 9.17696 32.3635 9.05646C32.5497 8.93596 32.6918 8.82642 32.7898 8.72782L33.2454 9.66444ZM30.1441 3.37102C29.8207 3.37102 29.512 3.40936 29.2181 3.48604C28.9339 3.56272 28.6791 3.69418 28.4537 3.88041C28.2382 4.05568 28.0569 4.2912 27.9099 4.58698C27.7727 4.8718 27.6845 5.22782 27.6453 5.65505H32.2166C32.1676 4.93205 31.9569 4.37336 31.5845 3.979C31.222 3.57368 30.7418 3.37102 30.1441 3.37102Z" fill="white"/>
<path d="M35.6503 5.35928C35.6503 5.26069 35.6454 5.13471 35.6356 4.98134C35.6356 4.81703 35.6307 4.65271 35.6209 4.48839C35.6111 4.31311 35.5964 4.14332 35.5768 3.979C35.567 3.81468 35.5523 3.67227 35.5327 3.55177H34.5479V2.48369H36.5175L36.6497 3.81468H36.7232C36.8212 3.62845 36.9486 3.4477 37.1054 3.27242C37.272 3.0862 37.4631 2.92188 37.6786 2.77947C37.8942 2.6261 38.1343 2.5056 38.3989 2.41796C38.6634 2.33033 38.9427 2.28651 39.2367 2.28651C39.6874 2.28651 40.0843 2.34128 40.4273 2.45083C40.78 2.56037 41.0691 2.75756 41.2945 3.04238C41.5296 3.31624 41.706 3.69418 41.8236 4.17618C41.9412 4.64723 42 5.24973 42 5.98369V10.6997H40.8535V6.23017C40.8535 5.32094 40.7212 4.63627 40.4567 4.17618C40.1921 3.71609 39.7119 3.48604 39.0162 3.48604C38.7614 3.48604 38.5116 3.54629 38.2666 3.66679C38.0314 3.77634 37.8158 3.92422 37.6199 4.11045C37.4239 4.29668 37.2524 4.51577 37.1054 4.76773C36.9584 5.00873 36.8506 5.26616 36.782 5.54003V10.6997H35.6503V5.35928Z" fill="white"/>
</symbol>
<symbol id="logo1" viewBox="0 0 156 57">
<g clip-path="url(#clip0_130_1552)">
<path d="M74.8619 56.1439C75.7069 56.1439 76.0995 55.5585 76.0995 54.9704C76.0995 54.3199 75.7745 53.862 74.9269 53.6668C73.4943 53.3415 71.6068 52.6234 71.6068 49.2382V27.4826C71.6068 22.4685 73.9493 18.4952 78.0494 18.4952C81.4995 18.4952 82.9944 21.1649 82.9944 26.2466V49.2408C82.9944 52.6286 81.1069 53.3442 79.6769 53.6694C78.832 53.8646 78.5044 54.3199 78.5044 54.973C78.5044 55.5585 78.8944 56.1465 79.7419 56.1465C80.6519 56.1465 84.167 56.0398 88.527 56.0398H122.069C126.819 56.0398 135.336 56.2428 136.246 56.2428H136.248L142.103 56.3469C150.174 56.3469 156 51.4577 156 44.2917C156 29.2468 139.08 30.1575 139.08 20.6471C139.08 17.7823 140.577 16.0883 143.18 16.0883C145.522 16.0883 148.45 17.8473 150.532 22.4061C150.857 23.1216 151.117 23.5145 151.835 23.5145C152.553 23.5145 152.875 23.0592 152.875 22.4737C152.875 21.6931 152.745 20.7147 152.745 19.281C152.745 17.8473 152.875 16.5463 152.875 15.8281C152.875 13.9391 147.995 12.5704 143.242 12.5704C135.302 12.5704 129.577 17.5845 129.577 24.5553C129.577 37.3859 146.302 35.8872 146.302 47.8747C146.302 51.1949 144.48 53.0839 141.357 53.0839C137.257 53.0839 134.72 49.6311 132.832 44.4218C132.572 43.7062 132.182 43.3133 131.53 43.3133C130.984 43.3133 130.49 43.6386 130.341 44.3568V46.1756C130.347 46.3031 130.354 46.4306 130.362 46.5659H130.341V50.5392C130.341 51.3692 129.671 52.0405 128.841 52.0405C128.012 52.0405 127.341 51.3692 127.341 50.5392V14.2617C127.341 13.5462 126.951 13.2209 126.169 13.2209C125.649 13.2209 125.454 13.351 125.061 13.7413C122.848 15.9556 117.511 17.1942 114.973 17.5845C114.128 17.7146 113.866 18.17 113.866 18.758C113.866 19.4736 114.256 19.9315 114.973 20.1267C116.276 20.4519 116.926 20.9723 116.926 22.7964V47.2866C116.926 49.8835 114.804 52.09 112.21 52.0379C109.696 51.9911 107.668 49.9329 107.668 47.4063L107.595 34.0163V17.9488C107.595 17.1708 108.05 16.7805 109.027 16.7805H113.062C114.56 16.7805 114.95 16.0675 114.95 14.9617C114.95 13.8558 114.3 13.2079 113.062 13.2079H109.092C108.115 13.2079 107.595 12.8826 107.595 12.0396V6.84333C107.595 6.19543 107.075 5.87017 106.292 5.87017C105.577 5.87017 105.315 6.13037 105.12 6.45303C102.777 10.2832 97.8971 12.8852 94.707 14.1836C93.9921 14.5089 93.6645 14.8966 93.6645 15.6148C93.6645 16.3928 94.2495 16.9808 94.902 16.9808L96.5946 16.8507C96.9846 16.8507 97.1796 17.1109 97.1796 17.6938V50.1645C97.1796 51.2001 96.3398 52.0405 95.305 52.0405H95.2816C94.2469 52.0405 93.4071 51.2001 93.4071 50.1645V25.5987C93.4071 17.7172 88.0045 13.0934 81.0419 13.0934C77.5268 13.0934 74.7293 14.7873 72.3218 17.522C71.8668 18.0425 71.6068 18.1075 71.6068 17.522V14.0041C71.6068 13.4837 71.3468 13.2235 70.7618 13.2235C70.3069 13.2235 70.1119 13.2886 69.7193 13.6789C67.0518 16.3485 62.1717 17.7822 59.2416 18.2376C58.3966 18.3677 58.1341 18.8231 58.1341 19.4111C58.1341 20.0616 58.459 20.5196 59.1766 20.7147C60.6092 21.105 61.1942 21.6254 61.1942 23.4495V49.9641C61.1942 51.0544 60.3544 52.0093 59.265 52.0405C58.1757 52.0718 57.2111 51.1689 57.2111 50.0474V22.7964C57.2111 16.0883 52.2661 12.9607 45.3659 12.9607C43.8267 12.9607 42.285 13.2261 40.8004 13.6867C40.0283 13.926 39.2067 13.4343 39.0585 12.638C37.6025 4.8814 31.2302 0 22.0681 0C19.7255 0 15.6255 0.260203 10.5504 0.260203C5.47542 0.260203 2.61031 0 1.44035 0C0.389987 0.00260203 0 0.588058 0 1.30622C0 2.08683 0.324989 2.67488 1.36755 2.87004C3.0601 3.19529 5.20763 3.9785 5.20763 6.25787V50.0942C5.20763 52.1784 3.32009 52.7639 1.30256 53.2193C0.457585 53.4144 0.0649978 53.9348 0.0649978 54.718C0.0649978 55.4336 0.519983 56.0216 1.36755 56.0216C2.34252 56.0216 5.72761 55.6313 11.1952 55.6313C16.0753 55.6313 19.5253 56.0216 20.4353 56.0216C21.2803 56.0216 21.7379 55.4362 21.7379 54.718C21.7379 53.9374 21.3479 53.4144 20.5003 53.2193C18.4828 52.7639 16.5952 52.1758 16.5952 50.0942V33.3554C16.5952 32.4447 16.9202 32.1819 17.7678 32.7049C19.0704 33.4204 20.7603 34.1386 23.3004 34.1386C29.9484 34.1386 35 30.8418 37.5427 25.3047C37.5713 25.2449 37.6025 25.185 37.6389 25.133C38.1927 24.3081 38.6971 23.2985 39.2431 22.1563C41.1956 18.1179 42.6282 15.9686 44.5781 15.9686C46.2707 15.9686 46.6606 17.7276 46.6606 21.766V28.2788C46.6606 28.8643 46.4007 29.2546 45.8157 29.4497C34.1031 33.6832 27.3329 39.8709 27.3329 47.5572C27.3329 53.5497 31.6929 57 37.7455 57C41.9106 57 45.5557 55.5663 48.0932 53.1568C48.2882 52.9617 48.4832 52.8966 48.6782 53.1568C50.2407 54.9158 53.1032 56.0216 55.6407 56.0216L55.7655 56.0268L74.8567 56.1491H74.8593V56.1439H74.8619ZM21.0905 30.2225C17.4454 30.2225 16.6004 27.8781 16.6004 25.6638V5.98987C16.6004 4.10079 17.773 3.58039 19.9205 3.58039C24.9956 3.58039 27.3381 7.61873 27.3381 16.3459C27.3381 26.1816 25.5155 30.2199 21.0905 30.2199V30.2225ZM46.6684 45.983C46.6684 49.8913 44.9109 52.8211 41.9834 52.8211C39.0559 52.8211 37.8183 50.7369 37.8183 47.1539C37.8183 42.7253 39.7709 36.2775 46.0835 33.0848C46.4734 32.9547 46.6684 33.0197 46.6684 33.41V45.9804V45.983Z" fill="#F8F5EE"/>
</g>

</symbol>
<symbol id="logo2" viewBox="0 0 202 74">
<g clip-path="url(#clip0_198_831)">
<path d="M96.9366 72.6992C98.0307 72.6992 98.539 71.9411 98.539 71.1796C98.539 70.3373 98.1182 69.7443 97.0207 69.4916C95.1658 69.0705 92.7216 68.1405 92.7216 63.7571V35.5865C92.7216 29.0938 95.7549 23.9489 101.064 23.9489C105.531 23.9489 107.467 27.4058 107.467 33.986V63.7605C107.467 68.1473 105.023 69.0738 103.171 69.495C102.077 69.7477 101.653 70.3373 101.653 71.183C101.653 71.9411 102.158 72.7026 103.256 72.7026C104.434 72.7026 108.985 72.5644 114.631 72.5644H158.063C164.214 72.5644 175.243 72.8272 176.421 72.8272H176.424L184.006 72.962C194.456 72.962 202 66.6311 202 57.3521C202 37.8708 180.09 39.0501 180.09 26.7353C180.09 23.0257 182.03 20.8323 185.4 20.8323C188.433 20.8323 192.224 23.11 194.92 29.013C195.341 29.9395 195.678 30.4483 196.607 30.4483C197.536 30.4483 197.953 29.8587 197.953 29.1006C197.953 28.0898 197.785 26.8229 197.785 24.9664C197.785 23.11 197.953 21.4253 197.953 20.4954C197.953 18.0493 191.634 16.277 185.48 16.277C175.199 16.277 167.786 22.7697 167.786 31.796C167.786 48.41 189.443 46.4693 189.443 61.9916C189.443 66.2908 187.083 68.7369 183.04 68.7369C177.731 68.7369 174.445 64.2659 172.001 57.5205C171.664 56.594 171.159 56.0852 170.314 56.0852C169.607 56.0852 168.967 56.5064 168.775 57.4363V59.7914C168.782 59.9565 168.792 60.1216 168.802 60.2968H168.775V65.4417C168.775 66.5165 167.907 67.3858 166.833 67.3858C165.759 67.3858 164.89 66.5165 164.89 65.4417V18.4671C164.89 17.5405 164.385 17.1194 163.372 17.1194C162.699 17.1194 162.446 17.2878 161.938 17.7932C159.073 20.6605 152.162 22.2643 148.876 22.7697C147.782 22.9381 147.442 23.5278 147.442 24.2892C147.442 25.2158 147.947 25.8088 148.876 26.0615C150.562 26.4826 151.404 27.1565 151.404 29.5184V61.2301C151.404 64.5927 148.657 67.4498 145.297 67.3825C142.042 67.3218 139.416 64.6567 139.416 61.3851L139.321 44.0467V23.2414C139.321 22.234 139.911 21.7286 141.176 21.7286H146.401C148.34 21.7286 148.845 20.8054 148.845 19.3734C148.845 17.9415 148.004 17.1025 146.401 17.1025H141.261C139.995 17.1025 139.321 16.6814 139.321 15.5897V8.86124C139.321 8.02228 138.648 7.60112 137.635 7.60112C136.709 7.60112 136.369 7.93805 136.117 8.35584C133.083 13.3154 126.764 16.6847 122.633 18.366C121.708 18.7872 121.283 19.2892 121.283 20.2191C121.283 21.2265 122.041 21.988 122.886 21.988L125.078 21.8195C125.583 21.8195 125.835 22.1565 125.835 22.9112V64.9566C125.835 66.2975 124.748 67.3858 123.408 67.3858H123.377C122.038 67.3858 120.95 66.2975 120.95 64.9566V33.1471C120.95 22.9415 113.954 16.9543 104.939 16.9543C100.387 16.9543 96.7649 19.1477 93.6474 22.6888C93.0583 23.3627 92.7216 23.4469 92.7216 22.6888V18.1335C92.7216 17.4597 92.385 17.1227 91.6275 17.1227C91.0384 17.1227 90.7859 17.207 90.2775 17.7124C86.8234 21.1693 80.5044 23.0257 76.7103 23.6154C75.6162 23.7838 75.2762 24.3735 75.2762 25.1349C75.2762 25.9772 75.697 26.5702 76.6261 26.8229C78.4811 27.3283 79.2386 28.0022 79.2386 30.3641V64.6971C79.2386 66.1089 78.1512 67.3454 76.7406 67.3858C75.33 67.4263 74.081 66.2571 74.081 64.8049V29.5184C74.081 20.8323 67.6778 16.7824 58.743 16.7824C56.75 16.7824 54.7536 17.1261 52.8313 17.7225C51.8315 18.0324 50.7676 17.3957 50.5757 16.3646C48.6905 6.32079 40.4391 0 28.5753 0C25.542 0 20.233 0.336929 13.6615 0.336929C7.08996 0.336929 3.38002 0 1.86507 0C0.504983 0.00336929 0 0.76146 0 1.69138C0 2.70217 0.420819 3.46363 1.77081 3.71633C3.96243 4.13749 6.74321 5.15165 6.74321 8.10314V64.8656C6.74321 67.5644 4.29909 68.3225 1.68664 68.9121C0.592514 69.1648 0.0841639 69.8387 0.0841639 70.8528C0.0841639 71.7794 0.673311 72.5408 1.77081 72.5408C3.03327 72.5408 7.41652 72.0354 14.4964 72.0354C20.8154 72.0354 25.2828 72.5408 26.4611 72.5408C27.5552 72.5408 28.1478 71.7827 28.1478 70.8528C28.1478 69.842 27.6428 69.1648 26.5453 68.9121C23.9328 68.3225 21.4887 67.561 21.4887 64.8656V43.1909C21.4887 42.0117 21.9095 41.6714 23.007 42.3486C24.6937 43.2752 26.8819 44.2051 30.1711 44.2051C38.7793 44.2051 45.3206 39.9362 48.613 32.7664C48.6501 32.6889 48.6905 32.6114 48.7376 32.544C49.4547 31.4759 50.1078 30.1686 50.8148 28.6895C53.3431 23.4604 55.198 20.6773 57.7229 20.6773C59.9146 20.6773 60.4196 22.955 60.4196 28.1841V36.6175C60.4196 37.3755 60.0829 37.8809 59.3254 38.1336C44.1591 43.6155 35.3926 51.6276 35.3926 61.5805C35.3926 69.34 41.0383 73.8077 48.8756 73.8077C54.2689 73.8077 58.9888 71.9512 62.2745 68.8312C62.527 68.5786 62.7795 68.4943 63.032 68.8312C65.0553 71.1089 68.7619 72.5408 72.0476 72.5408L72.2092 72.5476L96.9298 72.7059H96.9332V72.6992H96.9366ZM27.3095 39.1343C22.5896 39.1343 21.4954 36.0986 21.4954 33.2313V7.75611C21.4954 5.31 23.0138 4.63614 25.7945 4.63614C32.3661 4.63614 35.3993 9.86528 35.3993 21.1659C35.3993 33.9018 33.0394 39.1309 27.3095 39.1309V39.1343ZM60.4296 59.5421C60.4296 64.6028 58.1539 68.3966 54.3631 68.3966C50.5724 68.3966 48.9699 65.6978 48.9699 61.0583C48.9699 55.3238 51.4982 46.9747 59.6722 42.8405C60.1772 42.6721 60.4296 42.7563 60.4296 43.2617V59.5387V59.5421Z" fill="#382819"/>
</g>

</symbol>
<symbol id="search" viewBox="0 0 12 12">
<path d="M5.5 9.5C7.70914 9.5 9.5 7.70914 9.5 5.5C9.5 3.29086 7.70914 1.5 5.5 1.5C3.29086 1.5 1.5 3.29086 1.5 5.5C1.5 7.70914 3.29086 9.5 5.5 9.5Z" stroke="#F8F5EE" stroke-linecap="round" stroke-linejoin="round"/>
<path d="M10.5 10.5001L8.34998 8.3501" stroke="#F8F5EE" stroke-linecap="round" stroke-linejoin="round"/>
</symbol>
</svg>