<svg width="42" height="12" viewBox="0 0 42 12" fill="none" xmlns="http://www.w3.org/2000/svg">
<path d="M0 10.6997V9.59872H1.9843V3.58463H0V2.48369H2.74862L2.98379 3.55177H3.05728C3.39045 3.21217 3.76281 2.92188 4.17437 2.68088C4.58593 2.43987 5.07588 2.31937 5.64422 2.31937C5.97738 2.31937 6.24196 2.39058 6.43794 2.53299C6.64371 2.6754 6.8005 2.88354 6.90829 3.1574C7.02588 3.43127 7.10427 3.76538 7.14346 4.15975C7.18266 4.54316 7.20226 4.98135 7.20226 5.4743L6.17336 5.49074C6.17336 4.78964 6.10967 4.27477 5.98228 3.94613C5.8647 3.6175 5.64422 3.45318 5.32085 3.45318C5.01708 3.45318 4.74271 3.50247 4.49774 3.60106C4.25276 3.69966 4.03718 3.82016 3.851 3.96257C3.67462 4.10498 3.52274 4.24739 3.39535 4.3898C3.26796 4.53221 3.17487 4.65271 3.11608 4.7513V9.59872H5.93819V10.6997H0Z" fill="white"/>
<path d="M13.1788 2.48369H15.266V8.08698C15.266 8.62375 15.2954 9.13862 15.3542 9.63158H16.339V10.6997H14.3841L14.34 9.30294H14.2812C14.0264 9.77399 13.6883 10.1574 13.267 10.4532C12.8456 10.749 12.3361 10.8968 11.7383 10.8968C11.2876 10.8968 10.9005 10.8366 10.5772 10.7161C10.2636 10.6065 10.0039 10.4094 9.79815 10.1245C9.59237 9.83972 9.44048 9.46178 9.34249 8.99074C9.2445 8.50873 9.19551 7.91171 9.19551 7.19966V3.58463H8.21071V2.48369H10.342V6.93674C10.342 7.38588 10.3567 7.7912 10.3861 8.15271C10.4253 8.50325 10.4988 8.80451 10.6066 9.05646C10.7144 9.29746 10.8711 9.48369 11.0769 9.61515C11.2925 9.73565 11.5767 9.7959 11.9294 9.7959C12.439 9.7959 12.8799 9.60967 13.2523 9.23721C13.6345 8.86476 13.9235 8.39919 14.1195 7.8405V3.58463H13.1788V2.48369Z" fill="white"/>
<path d="M24.5692 -1L25.4952 -0.539906L20.1302 13L19.2042 12.5399L24.5692 -1Z" fill="white"/>
<path d="M33.2454 9.66444C33.0691 9.83972 32.8584 10.004 32.6134 10.1574C32.3782 10.3108 32.1186 10.4422 31.8344 10.5518C31.5502 10.6613 31.2513 10.7435 30.9378 10.7982C30.634 10.864 30.3253 10.8968 30.0118 10.8968C29.4238 10.8968 28.9045 10.7982 28.4537 10.6011C28.003 10.3929 27.6257 10.1026 27.322 9.73017C27.0182 9.34676 26.7879 8.89214 26.6311 8.36632C26.4743 7.8405 26.396 7.24895 26.396 6.59167C26.396 5.90153 26.4792 5.28807 26.6458 4.7513C26.8222 4.21452 27.0721 3.76538 27.3954 3.40388C27.7188 3.04238 28.1108 2.76851 28.5713 2.58228C29.0319 2.3851 29.5463 2.28651 30.1147 2.28651C30.5262 2.28651 30.9329 2.34676 31.3346 2.46726C31.7364 2.58776 32.0892 2.81781 32.3929 3.1574C32.7065 3.48604 32.9466 3.94613 33.1132 4.53768C33.2797 5.11828 33.3385 5.87415 33.2895 6.80529H27.6012C27.6012 7.7912 27.8364 8.53064 28.3068 9.0236C28.7869 9.5056 29.4238 9.7466 30.2176 9.7466C30.4821 9.7466 30.7418 9.71374 30.9966 9.64801C31.2611 9.57133 31.511 9.48369 31.7462 9.3851C31.9814 9.28651 32.1872 9.17696 32.3635 9.05646C32.5497 8.93596 32.6918 8.82642 32.7898 8.72782L33.2454 9.66444ZM30.1441 3.37102C29.8207 3.37102 29.512 3.40936 29.2181 3.48604C28.9339 3.56272 28.6791 3.69418 28.4537 3.88041C28.2382 4.05568 28.0569 4.2912 27.9099 4.58698C27.7727 4.8718 27.6845 5.22782 27.6453 5.65505H32.2166C32.1676 4.93205 31.9569 4.37336 31.5845 3.979C31.222 3.57368 30.7418 3.37102 30.1441 3.37102Z" fill="white"/>
<path d="M35.6503 5.35928C35.6503 5.26069 35.6454 5.13471 35.6356 4.98134C35.6356 4.81703 35.6307 4.65271 35.6209 4.48839C35.6111 4.31311 35.5964 4.14332 35.5768 3.979C35.567 3.81468 35.5523 3.67227 35.5327 3.55177H34.5479V2.48369H36.5175L36.6497 3.81468H36.7232C36.8212 3.62845 36.9486 3.4477 37.1054 3.27242C37.272 3.0862 37.4631 2.92188 37.6786 2.77947C37.8942 2.6261 38.1343 2.5056 38.3989 2.41796C38.6634 2.33033 38.9427 2.28651 39.2367 2.28651C39.6874 2.28651 40.0843 2.34128 40.4273 2.45083C40.78 2.56037 41.0691 2.75756 41.2945 3.04238C41.5296 3.31624 41.706 3.69418 41.8236 4.17618C41.9412 4.64723 42 5.24973 42 5.98369V10.6997H40.8535V6.23017C40.8535 5.32094 40.7212 4.63627 40.4567 4.17618C40.1921 3.71609 39.7119 3.48604 39.0162 3.48604C38.7614 3.48604 38.5116 3.54629 38.2666 3.66679C38.0314 3.77634 37.8158 3.92422 37.6199 4.11045C37.4239 4.29668 37.2524 4.51577 37.1054 4.76773C36.9584 5.00873 36.8506 5.26616 36.782 5.54003V10.6997H35.6503V5.35928Z" fill="white"/>
</svg>
