<svg xmlns="http://www.w3.org/2000/svg" width="45" height="12" fill="currentColor" viewBox="0 0 45 12">
  <g clip-path="url(#a)">
    <path d="M2 10.7V9.599h1.984V3.585H2V2.484h2.749l.235 1.068h.073a5.33 5.33 0 0 1 1.117-.871c.412-.241.902-.362 1.47-.362.333 0 .598.072.794.214.206.142.362.35.47.624.118.274.196.608.235 1.003.04.383.06.821.06 1.314l-1.03.017c0-.701-.063-1.216-.19-1.545-.118-.329-.339-.493-.662-.493-.304 0-.578.05-.823.148-.245.099-.46.22-.647.362a3.88 3.88 0 0 0-.456.427c-.127.142-.22.263-.279.361V9.6h2.822v1.1H2Zm13.179-8.216h2.087v5.603c0 .537.03 1.052.088 1.545h.985V10.7h-1.955l-.044-1.397h-.059a3.3 3.3 0 0 1-1.014 1.15c-.421.296-.93.444-1.529.444-.45 0-.838-.06-1.16-.18a1.596 1.596 0 0 1-.78-.593c-.206-.284-.357-.662-.456-1.133-.098-.482-.147-1.08-.147-1.791V3.585h-.984V2.484h2.131v4.453c0 .449.015.854.044 1.216.04.35.113.652.22.903.108.241.265.428.47.56.216.12.5.18.853.18.51 0 .95-.186 1.323-.559.382-.372.671-.838.867-1.397V3.585h-.94V2.484ZM26.57-1l.925.46L22.13 13l-.926-.46L26.57-1Zm8.675 10.664c-.176.176-.387.34-.632.493a4.161 4.161 0 0 1-.779.395 4.75 4.75 0 0 1-.896.246 4.362 4.362 0 0 1-.926.099c-.588 0-1.108-.099-1.558-.296a3.134 3.134 0 0 1-1.132-.87 4.019 4.019 0 0 1-.69-1.365 6.205 6.205 0 0 1-.236-1.774c0-.69.083-1.304.25-1.84.176-.537.426-.987.75-1.348a3.129 3.129 0 0 1 1.175-.822c.46-.197.975-.295 1.544-.295.411 0 .818.06 1.22.18.401.12.754.35 1.058.69.313.329.554.79.72 1.38.167.581.226 1.337.176 2.268h-5.688c0 .986.235 1.726.706 2.219.48.482 1.117.723 1.91.723a3.1 3.1 0 0 0 .78-.099c.264-.077.514-.164.75-.263.234-.098.44-.208.617-.329.186-.12.328-.23.426-.328l.455.936Zm-3.1-6.293c-.324 0-.633.038-.927.115a2.007 2.007 0 0 0-1.308 1.101c-.137.285-.226.64-.265 1.068h4.572c-.05-.723-.26-1.282-.633-1.676-.362-.405-.842-.608-1.44-.608ZM37.65 5.36a6.15 6.15 0 0 0-.014-.379 8.278 8.278 0 0 0-.06-1.002 4.295 4.295 0 0 0-.043-.427h-.985V2.484h1.97l.132 1.33h.073c.098-.186.226-.366.382-.542.167-.186.358-.35.574-.493a2.697 2.697 0 0 1 1.558-.492c.45 0 .847.054 1.19.164.353.11.642.307.867.591.236.274.412.652.53 1.134.117.471.176 1.074.176 1.808V10.7h-1.147V6.23c0-.91-.132-1.594-.396-2.054-.265-.46-.745-.69-1.44-.69-.256 0-.505.06-.75.18-.236.11-.451.258-.647.444a2.95 2.95 0 0 0-.515.658 2.765 2.765 0 0 0-.323.772v5.16H37.65V5.36Z"/>
  </g>
  <defs>
    <clipPath id="a">
      <path d="M0 0h45v12H0z"/>
    </clipPath>
  </defs>
</svg>
