<svg width="202" height="74" viewBox="0 0 202 74" fill="none" xmlns="http://www.w3.org/2000/svg">
<g clip-path="url(#clip0_198_831)">
<path d="M96.9366 72.6992C98.0307 72.6992 98.539 71.9411 98.539 71.1796C98.539 70.3373 98.1182 69.7443 97.0207 69.4916C95.1658 69.0705 92.7216 68.1405 92.7216 63.7571V35.5865C92.7216 29.0938 95.7549 23.9489 101.064 23.9489C105.531 23.9489 107.467 27.4058 107.467 33.986V63.7605C107.467 68.1473 105.023 69.0738 103.171 69.495C102.077 69.7477 101.653 70.3373 101.653 71.183C101.653 71.9411 102.158 72.7026 103.256 72.7026C104.434 72.7026 108.985 72.5644 114.631 72.5644H158.063C164.214 72.5644 175.243 72.8272 176.421 72.8272H176.424L184.006 72.962C194.456 72.962 202 66.6311 202 57.3521C202 37.8708 180.09 39.0501 180.09 26.7353C180.09 23.0257 182.03 20.8323 185.4 20.8323C188.433 20.8323 192.224 23.11 194.92 29.013C195.341 29.9395 195.678 30.4483 196.607 30.4483C197.536 30.4483 197.953 29.8587 197.953 29.1006C197.953 28.0898 197.785 26.8229 197.785 24.9664C197.785 23.11 197.953 21.4253 197.953 20.4954C197.953 18.0493 191.634 16.277 185.48 16.277C175.199 16.277 167.786 22.7697 167.786 31.796C167.786 48.41 189.443 46.4693 189.443 61.9916C189.443 66.2908 187.083 68.7369 183.04 68.7369C177.731 68.7369 174.445 64.2659 172.001 57.5205C171.664 56.594 171.159 56.0852 170.314 56.0852C169.607 56.0852 168.967 56.5064 168.775 57.4363V59.7914C168.782 59.9565 168.792 60.1216 168.802 60.2968H168.775V65.4417C168.775 66.5165 167.907 67.3858 166.833 67.3858C165.759 67.3858 164.89 66.5165 164.89 65.4417V18.4671C164.89 17.5405 164.385 17.1194 163.372 17.1194C162.699 17.1194 162.446 17.2878 161.938 17.7932C159.073 20.6605 152.162 22.2643 148.876 22.7697C147.782 22.9381 147.442 23.5278 147.442 24.2892C147.442 25.2158 147.947 25.8088 148.876 26.0615C150.562 26.4826 151.404 27.1565 151.404 29.5184V61.2301C151.404 64.5927 148.657 67.4498 145.297 67.3825C142.042 67.3218 139.416 64.6567 139.416 61.3851L139.321 44.0467V23.2414C139.321 22.234 139.911 21.7286 141.176 21.7286H146.401C148.34 21.7286 148.845 20.8054 148.845 19.3734C148.845 17.9415 148.004 17.1025 146.401 17.1025H141.261C139.995 17.1025 139.321 16.6814 139.321 15.5897V8.86124C139.321 8.02228 138.648 7.60112 137.635 7.60112C136.709 7.60112 136.369 7.93805 136.117 8.35584C133.083 13.3154 126.764 16.6847 122.633 18.366C121.708 18.7872 121.283 19.2892 121.283 20.2191C121.283 21.2265 122.041 21.988 122.886 21.988L125.078 21.8195C125.583 21.8195 125.835 22.1565 125.835 22.9112V64.9566C125.835 66.2975 124.748 67.3858 123.408 67.3858H123.377C122.038 67.3858 120.95 66.2975 120.95 64.9566V33.1471C120.95 22.9415 113.954 16.9543 104.939 16.9543C100.387 16.9543 96.7649 19.1477 93.6474 22.6888C93.0583 23.3627 92.7216 23.4469 92.7216 22.6888V18.1335C92.7216 17.4597 92.385 17.1227 91.6275 17.1227C91.0384 17.1227 90.7859 17.207 90.2775 17.7124C86.8234 21.1693 80.5044 23.0257 76.7103 23.6154C75.6162 23.7838 75.2762 24.3735 75.2762 25.1349C75.2762 25.9772 75.697 26.5702 76.6261 26.8229C78.4811 27.3283 79.2386 28.0022 79.2386 30.3641V64.6971C79.2386 66.1089 78.1512 67.3454 76.7406 67.3858C75.33 67.4263 74.081 66.2571 74.081 64.8049V29.5184C74.081 20.8323 67.6778 16.7824 58.743 16.7824C56.75 16.7824 54.7536 17.1261 52.8313 17.7225C51.8315 18.0324 50.7676 17.3957 50.5757 16.3646C48.6905 6.32079 40.4391 0 28.5753 0C25.542 0 20.233 0.336929 13.6615 0.336929C7.08996 0.336929 3.38002 0 1.86507 0C0.504983 0.00336929 0 0.76146 0 1.69138C0 2.70217 0.420819 3.46363 1.77081 3.71633C3.96243 4.13749 6.74321 5.15165 6.74321 8.10314V64.8656C6.74321 67.5644 4.29909 68.3225 1.68664 68.9121C0.592514 69.1648 0.0841639 69.8387 0.0841639 70.8528C0.0841639 71.7794 0.673311 72.5408 1.77081 72.5408C3.03327 72.5408 7.41652 72.0354 14.4964 72.0354C20.8154 72.0354 25.2828 72.5408 26.4611 72.5408C27.5552 72.5408 28.1478 71.7827 28.1478 70.8528C28.1478 69.842 27.6428 69.1648 26.5453 68.9121C23.9328 68.3225 21.4887 67.561 21.4887 64.8656V43.1909C21.4887 42.0117 21.9095 41.6714 23.007 42.3486C24.6937 43.2752 26.8819 44.2051 30.1711 44.2051C38.7793 44.2051 45.3206 39.9362 48.613 32.7664C48.6501 32.6889 48.6905 32.6114 48.7376 32.544C49.4547 31.4759 50.1078 30.1686 50.8148 28.6895C53.3431 23.4604 55.198 20.6773 57.7229 20.6773C59.9146 20.6773 60.4196 22.955 60.4196 28.1841V36.6175C60.4196 37.3755 60.0829 37.8809 59.3254 38.1336C44.1591 43.6155 35.3926 51.6276 35.3926 61.5805C35.3926 69.34 41.0383 73.8077 48.8756 73.8077C54.2689 73.8077 58.9888 71.9512 62.2745 68.8312C62.527 68.5786 62.7795 68.4943 63.032 68.8312C65.0553 71.1089 68.7619 72.5408 72.0476 72.5408L72.2092 72.5476L96.9298 72.7059H96.9332V72.6992H96.9366ZM27.3095 39.1343C22.5896 39.1343 21.4954 36.0986 21.4954 33.2313V7.75611C21.4954 5.31 23.0138 4.63614 25.7945 4.63614C32.3661 4.63614 35.3993 9.86528 35.3993 21.1659C35.3993 33.9018 33.0394 39.1309 27.3095 39.1309V39.1343ZM60.4296 59.5421C60.4296 64.6028 58.1539 68.3966 54.3631 68.3966C50.5724 68.3966 48.9699 65.6978 48.9699 61.0583C48.9699 55.3238 51.4982 46.9747 59.6722 42.8405C60.1772 42.6721 60.4296 42.7563 60.4296 43.2617V59.5387V59.5421Z" fill="#382819"/>
</g>
<defs>
<clipPath id="clip0_198_831">
<rect width="202" height="73.8077" fill="white"/>
</clipPath>
</defs>
</svg>
