<svg width="156" height="57" viewBox="0 0 156 57" fill="none" xmlns="http://www.w3.org/2000/svg">
<g clip-path="url(#clip0_130_1552)">
<path d="M74.8619 56.1439C75.7069 56.1439 76.0995 55.5585 76.0995 54.9704C76.0995 54.3199 75.7745 53.862 74.9269 53.6668C73.4943 53.3415 71.6068 52.6234 71.6068 49.2382V27.4826C71.6068 22.4685 73.9493 18.4952 78.0494 18.4952C81.4995 18.4952 82.9944 21.1649 82.9944 26.2466V49.2408C82.9944 52.6286 81.1069 53.3442 79.6769 53.6694C78.832 53.8646 78.5044 54.3199 78.5044 54.973C78.5044 55.5585 78.8944 56.1465 79.7419 56.1465C80.6519 56.1465 84.167 56.0398 88.527 56.0398H122.069C126.819 56.0398 135.336 56.2428 136.246 56.2428H136.248L142.103 56.3469C150.174 56.3469 156 51.4577 156 44.2917C156 29.2468 139.08 30.1575 139.08 20.6471C139.08 17.7823 140.577 16.0883 143.18 16.0883C145.522 16.0883 148.45 17.8473 150.532 22.4061C150.857 23.1216 151.117 23.5145 151.835 23.5145C152.553 23.5145 152.875 23.0592 152.875 22.4737C152.875 21.6931 152.745 20.7147 152.745 19.281C152.745 17.8473 152.875 16.5463 152.875 15.8281C152.875 13.9391 147.995 12.5704 143.242 12.5704C135.302 12.5704 129.577 17.5845 129.577 24.5553C129.577 37.3859 146.302 35.8872 146.302 47.8747C146.302 51.1949 144.48 53.0839 141.357 53.0839C137.257 53.0839 134.72 49.6311 132.832 44.4218C132.572 43.7062 132.182 43.3133 131.53 43.3133C130.984 43.3133 130.49 43.6386 130.341 44.3568V46.1756C130.347 46.3031 130.354 46.4306 130.362 46.5659H130.341V50.5392C130.341 51.3692 129.671 52.0405 128.841 52.0405C128.012 52.0405 127.341 51.3692 127.341 50.5392V14.2617C127.341 13.5462 126.951 13.2209 126.169 13.2209C125.649 13.2209 125.454 13.351 125.061 13.7413C122.848 15.9556 117.511 17.1942 114.973 17.5845C114.128 17.7146 113.866 18.17 113.866 18.758C113.866 19.4736 114.256 19.9315 114.973 20.1267C116.276 20.4519 116.926 20.9723 116.926 22.7964V47.2866C116.926 49.8835 114.804 52.09 112.21 52.0379C109.696 51.9911 107.668 49.9329 107.668 47.4063L107.595 34.0163V17.9488C107.595 17.1708 108.05 16.7805 109.027 16.7805H113.062C114.56 16.7805 114.95 16.0675 114.95 14.9617C114.95 13.8558 114.3 13.2079 113.062 13.2079H109.092C108.115 13.2079 107.595 12.8826 107.595 12.0396V6.84333C107.595 6.19543 107.075 5.87017 106.292 5.87017C105.577 5.87017 105.315 6.13037 105.12 6.45303C102.777 10.2832 97.8971 12.8852 94.707 14.1836C93.9921 14.5089 93.6645 14.8966 93.6645 15.6148C93.6645 16.3928 94.2495 16.9808 94.902 16.9808L96.5946 16.8507C96.9846 16.8507 97.1796 17.1109 97.1796 17.6938V50.1645C97.1796 51.2001 96.3398 52.0405 95.305 52.0405H95.2816C94.2469 52.0405 93.4071 51.2001 93.4071 50.1645V25.5987C93.4071 17.7172 88.0045 13.0934 81.0419 13.0934C77.5268 13.0934 74.7293 14.7873 72.3218 17.522C71.8668 18.0425 71.6068 18.1075 71.6068 17.522V14.0041C71.6068 13.4837 71.3468 13.2235 70.7618 13.2235C70.3069 13.2235 70.1119 13.2886 69.7193 13.6789C67.0518 16.3485 62.1717 17.7822 59.2416 18.2376C58.3966 18.3677 58.1341 18.8231 58.1341 19.4111C58.1341 20.0616 58.459 20.5196 59.1766 20.7147C60.6092 21.105 61.1942 21.6254 61.1942 23.4495V49.9641C61.1942 51.0544 60.3544 52.0093 59.265 52.0405C58.1757 52.0718 57.2111 51.1689 57.2111 50.0474V22.7964C57.2111 16.0883 52.2661 12.9607 45.3659 12.9607C43.8267 12.9607 42.285 13.2261 40.8004 13.6867C40.0283 13.926 39.2067 13.4343 39.0585 12.638C37.6025 4.8814 31.2302 0 22.0681 0C19.7255 0 15.6255 0.260203 10.5504 0.260203C5.47542 0.260203 2.61031 0 1.44035 0C0.389987 0.00260203 0 0.588058 0 1.30622C0 2.08683 0.324989 2.67488 1.36755 2.87004C3.0601 3.19529 5.20763 3.9785 5.20763 6.25787V50.0942C5.20763 52.1784 3.32009 52.7639 1.30256 53.2193C0.457585 53.4144 0.0649978 53.9348 0.0649978 54.718C0.0649978 55.4336 0.519983 56.0216 1.36755 56.0216C2.34252 56.0216 5.72761 55.6313 11.1952 55.6313C16.0753 55.6313 19.5253 56.0216 20.4353 56.0216C21.2803 56.0216 21.7379 55.4362 21.7379 54.718C21.7379 53.9374 21.3479 53.4144 20.5003 53.2193C18.4828 52.7639 16.5952 52.1758 16.5952 50.0942V33.3554C16.5952 32.4447 16.9202 32.1819 17.7678 32.7049C19.0704 33.4204 20.7603 34.1386 23.3004 34.1386C29.9484 34.1386 35 30.8418 37.5427 25.3047C37.5713 25.2449 37.6025 25.185 37.6389 25.133C38.1927 24.3081 38.6971 23.2985 39.2431 22.1563C41.1956 18.1179 42.6282 15.9686 44.5781 15.9686C46.2707 15.9686 46.6606 17.7276 46.6606 21.766V28.2788C46.6606 28.8643 46.4007 29.2546 45.8157 29.4497C34.1031 33.6832 27.3329 39.8709 27.3329 47.5572C27.3329 53.5497 31.6929 57 37.7455 57C41.9106 57 45.5557 55.5663 48.0932 53.1568C48.2882 52.9617 48.4832 52.8966 48.6782 53.1568C50.2407 54.9158 53.1032 56.0216 55.6407 56.0216L55.7655 56.0268L74.8567 56.1491H74.8593V56.1439H74.8619ZM21.0905 30.2225C17.4454 30.2225 16.6004 27.8781 16.6004 25.6638V5.98987C16.6004 4.10079 17.773 3.58039 19.9205 3.58039C24.9956 3.58039 27.3381 7.61873 27.3381 16.3459C27.3381 26.1816 25.5155 30.2199 21.0905 30.2199V30.2225ZM46.6684 45.983C46.6684 49.8913 44.9109 52.8211 41.9834 52.8211C39.0559 52.8211 37.8183 50.7369 37.8183 47.1539C37.8183 42.7253 39.7709 36.2775 46.0835 33.0848C46.4734 32.9547 46.6684 33.0197 46.6684 33.41V45.9804V45.983Z" fill="#F8F5EE"/>
</g>
<defs>
<clipPath id="clip0_130_1552">
<rect width="156" height="57" fill="white"/>
</clipPath>
</defs>
</svg>
